<?xml version="1.0" standalone="no"?>
<!DOCTYPE svg PUBLIC "-//W3C//DTD SVG 20010904//EN"
 "http://www.w3.org/TR/2001/REC-SVG-20010904/DTD/svg10.dtd">
<svg version="1.0" xmlns="http://www.w3.org/2000/svg"
 width="225.000000pt" height="225.000000pt" viewBox="0 0 225.000000 225.000000"
 preserveAspectRatio="xMidYMid meet">
<metadata>
Created by potrace 1.14, written by Peter Selinger 2001-2017
</metadata>
<g transform="translate(0.000000,225.000000) scale(0.100000,-0.100000)"
fill="#000000" stroke="none">
<path d="M1444 2119 c-64 -41 -266 -246 -373 -379 -109 -135 -230 -320 -272
-415 l-32 -75 -32 20 c-133 82 -528 220 -630 220 l-30 -1 30 -25 c66 -55 107
-99 125 -133 10 -20 45 -124 78 -231 33 -107 63 -202 67 -211 5 -12 -8 -21
-56 -39 -83 -30 -159 -104 -180 -175 -39 -136 16 -284 133 -352 27 -17 37 -33
20 -33 -5 0 -36 -25 -70 -56 -70 -63 -81 -97 -36 -114 69 -27 340 -2 615 55
446 93 806 215 874 297 28 33 29 56 9 139 -5 23 -2 27 34 37 22 7 46 10 54 7
8 -3 37 -32 66 -64 54 -62 152 -121 201 -121 23 0 20 4 -24 34 -40 27 -85 79
-85 98 0 1 44 3 98 3 143 0 160 18 32 33 -106 13 -142 24 -135 45 2 6 6 24 9
39 3 14 18 40 32 57 l26 31 -25 0 c-46 0 -86 -12 -108 -33 -21 -20 -22 -20
-35 -2 -18 24 -27 76 -22 120 2 19 3 35 2 35 -1 0 -16 -20 -32 -45 l-30 -45
-12 32 c-18 51 -25 210 -10 239 l13 24 -23 -20 c-54 -48 -65 -135 -30 -225 24
-61 26 -137 4 -168 -20 -29 -26 -28 -47 11 -23 42 -64 67 -111 67 l-36 0 41
60 c66 97 83 156 83 290 0 132 -24 243 -115 530 -46 143 -53 176 -53 250 -1
73 3 94 28 148 16 34 27 65 24 67 -2 3 -27 -9 -54 -26z"/>
</g>
</svg>
